<svg id="visual" viewBox="0 0 900 600" width="900" height="600" xmlns="http://www.w3.org/2000/svg" xmlns:xlink="http://www.w3.org/1999/xlink" version="1.1"><rect x="0" y="0" width="900" height="600" fill="#001220"></rect><path d="M0 422L21.5 419.5C43 417 86 412 128.8 411.2C171.7 410.3 214.3 413.7 257.2 414.3C300 415 343 413 385.8 402.3C428.7 391.7 471.3 372.3 514.2 369.3C557 366.3 600 379.7 642.8 380.2C685.7 380.7 728.3 368.3 771.2 367.3C814 366.3 857 376.7 878.5 381.8L900 387L900 601L878.5 601C857 601 814 601 771.2 601C728.3 601 685.7 601 642.8 601C600 601 557 601 514.2 601C471.3 601 428.7 601 385.8 601C343 601 300 601 257.2 601C214.3 601 171.7 601 128.8 601C86 601 43 601 21.5 601L0 601Z" fill="#76db52"></path><path d="M0 415L21.5 413.5C43 412 86 409 128.8 415.2C171.7 421.3 214.3 436.7 257.2 441C300 445.3 343 438.7 385.8 433.3C428.7 428 471.3 424 514.2 417.7C557 411.3 600 402.7 642.8 407.2C685.7 411.7 728.3 429.3 771.2 436.8C814 444.3 857 441.7 878.5 440.3L900 439L900 601L878.5 601C857 601 814 601 771.2 601C728.3 601 685.7 601 642.8 601C600 601 557 601 514.2 601C471.3 601 428.7 601 385.8 601C343 601 300 601 257.2 601C214.3 601 171.7 601 128.8 601C86 601 43 601 21.5 601L0 601Z" fill="#69c747"></path><path d="M0 452L21.5 460.2C43 468.3 86 484.7 128.8 490C171.7 495.3 214.3 489.7 257.2 480.3C300 471 343 458 385.8 450.8C428.7 443.7 471.3 442.3 514.2 444.5C557 446.7 600 452.3 642.8 455C685.7 457.7 728.3 457.3 771.2 455.7C814 454 857 451 878.5 449.5L900 448L900 601L878.5 601C857 601 814 601 771.2 601C728.3 601 685.7 601 642.8 601C600 601 557 601 514.2 601C471.3 601 428.7 601 385.8 601C343 601 300 601 257.2 601C214.3 601 171.7 601 128.8 601C86 601 43 601 21.5 601L0 601Z" fill="#5cb43c"></path><path d="M0 509L21.5 505.2C43 501.3 86 493.7 128.8 493.3C171.7 493 214.3 500 257.2 500.5C300 501 343 495 385.8 494.3C428.7 493.7 471.3 498.3 514.2 502.3C557 506.3 600 509.7 642.8 510.8C685.7 512 728.3 511 771.2 511.5C814 512 857 514 878.5 515L900 516L900 601L878.5 601C857 601 814 601 771.2 601C728.3 601 685.7 601 642.8 601C600 601 557 601 514.2 601C471.3 601 428.7 601 385.8 601C343 601 300 601 257.2 601C214.3 601 171.7 601 128.8 601C86 601 43 601 21.5 601L0 601Z" fill="#4fa131"></path><path d="M0 562L21.5 560.5C43 559 86 556 128.8 556.3C171.7 556.7 214.3 560.3 257.2 557.7C300 555 343 546 385.8 540.5C428.7 535 471.3 533 514.2 533.2C557 533.3 600 535.7 642.8 542C685.7 548.3 728.3 558.7 771.2 562C814 565.3 857 561.7 878.5 559.8L900 558L900 601L878.5 601C857 601 814 601 771.2 601C728.3 601 685.7 601 642.8 601C600 601 557 601 514.2 601C471.3 601 428.7 601 385.8 601C343 601 300 601 257.2 601C214.3 601 171.7 601 128.8 601C86 601 43 601 21.5 601L0 601Z" fill="#428f27"></path></svg>